<?xml version="1.0" encoding="UTF-8"?>
<!DOCTYPE svg PUBLIC "-//W3C//DTD SVG 1.1//EN" "http://www.w3.org/Graphics/SVG/1.1/DTD/svg11.dtd">
<svg xmlns="http://www.w3.org/2000/svg" version="1.1" width="1000px" height="1002px" style="shape-rendering:geometricPrecision; text-rendering:geometricPrecision; image-rendering:optimizeQuality; fill-rule:evenodd; clip-rule:evenodd" xmlns:xlink="http://www.w3.org/1999/xlink">
<g><path style="opacity:1" fill="#fe4a3f" d="M 465.5,2.5 C 489.5,2.5 513.5,2.5 537.5,2.5C 544.596,4.17662 551.929,4.84329 559.5,4.5C 564.217,6.23775 569.217,6.90442 574.5,6.5C 578.894,6.84366 583.228,7.51033 587.5,8.5C 587.611,9.11742 587.944,9.61742 588.5,10C 593.496,10.6107 598.496,11.1107 603.5,11.5C 604.5,11.5 605.5,11.5 606.5,11.5C 607.058,12.7899 608.058,13.6232 609.5,14C 619.36,17.0047 629.36,19.1714 639.5,20.5C 648.352,22.5619 657.019,25.2285 665.5,28.5C 666.483,29.8503 667.816,30.8503 669.5,31.5C 679.961,35.0247 690.294,38.6914 700.5,42.5C 704.063,43.2824 707.397,44.6157 710.5,46.5C 711.348,48.0931 712.681,49.2597 714.5,50C 718.462,51.8459 722.462,53.3459 726.5,54.5C 728.91,57.6585 732.243,59.3252 736.5,59.5C 759.227,71.1846 780.56,84.8512 800.5,100.5C 800.539,101.583 800.873,102.583 801.5,103.5C 805.581,106.582 809.915,109.249 814.5,111.5C 833.695,126.023 851.362,142.356 867.5,160.5C 870.719,166.391 875.052,171.391 880.5,175.5C 901.937,199.277 920.27,225.277 935.5,253.5C 936.474,260.128 939.474,265.462 944.5,269.5C 949.615,278.065 953.948,287.065 957.5,296.5C 958.814,301.14 960.147,305.807 961.5,310.5C 962.828,313.148 964.494,315.481 966.5,317.5C 965.75,321.775 967.083,325.109 970.5,327.5C 970.5,327.833 970.5,328.167 970.5,328.5C 971.747,332.715 972.58,337.048 973,341.5C 973.881,344.014 975.381,346.014 977.5,347.5C 978.877,351.045 979.877,354.712 980.5,358.5C 980.41,361.152 981.076,363.485 982.5,365.5C 982.41,368.152 983.076,370.485 984.5,372.5C 983.617,378.556 984.95,383.889 988.5,388.5C 987.993,393.316 988.993,397.65 991.5,401.5C 991.5,401.833 991.5,402.167 991.5,402.5C 991.849,408.84 992.349,415.173 993,421.5C 994.329,430.308 996.162,438.975 998.5,447.5C 998.833,447.5 999.167,447.5 999.5,447.5C 999.5,480.5 999.5,513.5 999.5,546.5C 998.264,553.04 997.264,559.706 996.5,566.5C 995.093,571.319 993.926,576.319 993,581.5C 992.502,584.817 992.335,588.15 992.5,591.5C 991.883,591.611 991.383,591.944 991,592.5C 988.521,604.129 986.355,615.796 984.5,627.5C 977.383,656.359 967.383,684.025 954.5,710.5C 950.128,713.584 948.128,717.918 948.5,723.5C 942.859,736.121 936.192,748.121 928.5,759.5C 927.417,759.539 926.417,759.873 925.5,760.5C 924.77,762.341 924.103,764.175 923.5,766C 922.552,766.483 921.552,766.649 920.5,766.5C 920.5,768.5 920.5,770.5 920.5,772.5C 883.632,829.036 837.298,876.369 781.5,914.5C 778.663,914.684 776.663,916.018 775.5,918.5C 762.326,927.257 748.659,935.257 734.5,942.5C 732.712,942.215 731.045,942.548 729.5,943.5C 722.388,946.715 715.721,950.382 709.5,954.5C 706.912,956.625 703.912,957.958 700.5,958.5C 696.777,958.534 693.777,959.867 691.5,962.5C 688.46,964.346 685.127,965.679 681.5,966.5C 677.229,966.481 673.563,967.814 670.5,970.5C 668.801,970.34 667.134,970.506 665.5,971C 663.242,971.876 661.242,973.043 659.5,974.5C 652.941,976.807 646.274,978.807 639.5,980.5C 633.644,980.63 628.31,981.964 623.5,984.5C 621.698,985.458 619.698,986.125 617.5,986.5C 615.473,986.338 613.473,986.505 611.5,987C 610.944,987.383 610.611,987.883 610.5,988.5C 602.297,990.577 593.964,991.91 585.5,992.5C 568.22,993.633 551.22,995.467 534.5,998C 504.457,998.924 474.457,998.424 444.5,996.5C 444.082,995.778 443.416,995.278 442.5,995C 435.5,994.423 428.5,993.923 421.5,993.5C 420.833,993.5 420.167,993.5 419.5,993.5C 417.275,991.637 414.608,990.637 411.5,990.5C 407.182,989.918 402.849,989.585 398.5,989.5C 394.726,986.839 390.393,985.839 385.5,986.5C 379.694,983.474 373.36,981.807 366.5,981.5C 365.833,981.5 365.167,981.5 364.5,981.5C 362.326,979.919 359.993,978.419 357.5,977C 351.992,975.398 346.326,974.231 340.5,973.5C 340.167,973.5 339.833,973.5 339.5,973.5C 335.722,971.108 331.722,968.941 327.5,967C 322.993,965.163 318.327,963.996 313.5,963.5C 309.066,959.24 303.733,956.906 297.5,956.5C 287.398,952.615 277.731,947.948 268.5,942.5C 266.547,939.022 263.547,937.355 259.5,937.5C 246.477,930.652 233.81,923.152 221.5,915C 211.697,908.353 202.363,901.186 193.5,893.5C 190.393,889.785 186.727,886.785 182.5,884.5C 177.08,881.445 172.413,877.445 168.5,872.5C 164.788,867.121 160.121,862.787 154.5,859.5C 113.037,820.052 79.7035,774.719 54.5,723.5C 53.8118,718.722 51.8118,714.722 48.5,711.5C 43.2455,700.402 38.5788,689.068 34.5,677.5C 33.9767,674.11 33.1434,670.777 32,667.5C 31.6174,666.944 31.1174,666.611 30.5,666.5C 25.4311,653.908 21.4311,640.908 18.5,627.5C 17.2972,616.81 14.9638,606.477 11.5,596.5C 11.5,596.167 11.5,595.833 11.5,595.5C 10.8905,590.188 10.3905,584.854 10,579.5C 9.09706,575.024 7.93039,570.69 6.5,566.5C 3.89232,533.225 2.89232,499.891 3.5,466.5C 3.5,462.833 3.5,459.167 3.5,455.5C 4.88899,450.731 5.55565,445.731 5.5,440.5C 5.27863,437.721 5.61197,435.054 6.5,432.5C 7.11742,432.389 7.61742,432.056 8,431.5C 8.65098,425.173 9.15098,418.84 9.5,412.5C 9.5,412.167 9.5,411.833 9.5,411.5C 10.1174,411.389 10.6174,411.056 11,410.5C 13.3583,403.351 14.5249,396.017 14.5,388.5C 15.1174,388.389 15.6174,388.056 16,387.5C 17.5856,382.617 18.4189,377.617 18.5,372.5C 19.9238,370.485 20.5905,368.152 20.5,365.5C 21.9238,363.485 22.5905,361.152 22.5,358.5C 22.8944,354.653 23.8944,350.986 25.5,347.5C 27.5324,346.439 28.8658,344.772 29.5,342.5C 30.3391,337.763 31.3391,333.096 32.5,328.5C 32.5,328.167 32.5,327.833 32.5,327.5C 35.337,325.153 37.1704,322.153 38,318.5C 38.4955,316.527 38.6621,314.527 38.5,312.5C 40.8227,309.865 42.6561,306.865 44,303.5C 44.4935,301.866 44.6602,300.199 44.5,298.5C 54.1995,274.758 66.1995,252.424 80.5,231.5C 82.4287,230.994 84.0953,229.994 85.5,228.5C 89.2348,223.697 91.9014,218.364 93.5,212.5C 96.4365,206.959 100.103,201.959 104.5,197.5C 106.587,196.415 107.92,194.749 108.5,192.5C 110.587,191.415 111.92,189.749 112.5,187.5C 116.784,184.248 120.118,180.248 122.5,175.5C 127.948,171.391 132.281,166.391 135.5,160.5C 139.5,155.833 143.833,151.5 148.5,147.5C 155.444,142.225 161.777,136.225 167.5,129.5C 193.165,105.168 221.499,84.5015 252.5,67.5C 254.848,67.4077 256.514,66.4077 257.5,64.5C 273.119,55.1913 289.452,47.1913 306.5,40.5C 317.228,36.9783 327.895,33.145 338.5,29C 340.833,28.6667 343.167,28.3333 345.5,28C 349.075,25.7465 352.741,23.9132 356.5,22.5C 359.799,20.5165 363.466,19.5165 367.5,19.5C 369.848,19.3305 372.182,18.9971 374.5,18.5C 376.03,18.3601 377.03,17.6935 377.5,16.5C 379.905,15.2318 382.572,14.5651 385.5,14.5C 397.407,13.2723 409.074,10.939 420.5,7.5C 420.833,7.5 421.167,7.5 421.5,7.5C 429.495,7.00032 437.495,6.50032 445.5,6C 452.213,4.83359 458.879,3.66692 465.5,2.5 Z"/></g>
<g><path style="opacity:0.16" fill="#fff6f5" d="M 456.5,-0.5 C 488.167,-0.5 519.833,-0.5 551.5,-0.5C 703.532,17.3391 825.032,89.0058 916,214.5C 959.315,278.729 987.148,348.729 999.5,424.5C 999.5,432.167 999.5,439.833 999.5,447.5C 999.167,447.5 998.833,447.5 998.5,447.5C 996.89,432.258 994.557,417.258 991.5,402.5C 991.5,402.167 991.5,401.833 991.5,401.5C 990.66,397.015 989.66,392.681 988.5,388.5C 987.739,382.909 986.405,377.576 984.5,372.5C 984.59,369.848 983.924,367.515 982.5,365.5C 982.59,362.848 981.924,360.515 980.5,358.5C 979.877,354.712 978.877,351.045 977.5,347.5C 975.734,340.861 973.401,334.527 970.5,328.5C 970.5,328.167 970.5,327.833 970.5,327.5C 969.679,323.873 968.346,320.54 966.5,317.5C 964.287,310.084 961.287,303.084 957.5,296.5C 953.948,287.065 949.615,278.065 944.5,269.5C 942.003,263.835 939.003,258.502 935.5,253.5C 920.27,225.277 901.937,199.277 880.5,175.5C 876.534,170.199 872.2,165.199 867.5,160.5C 851.362,142.356 833.695,126.023 814.5,111.5C 810.432,107.101 805.765,103.435 800.5,100.5C 780.56,84.8512 759.227,71.1846 736.5,59.5C 733.485,57.3256 730.151,55.6589 726.5,54.5C 721.48,51.3232 716.146,48.6566 710.5,46.5C 707.397,44.6157 704.063,43.2824 700.5,42.5C 689.229,37.0378 677.562,32.3711 665.5,28.5C 657.019,25.2285 648.352,22.5619 639.5,20.5C 628.83,16.7464 617.83,13.7464 606.5,11.5C 605.5,11.5 604.5,11.5 603.5,11.5C 598.38,10.0192 593.047,9.01921 587.5,8.5C 583.228,7.51033 578.894,6.84366 574.5,6.5C 569.75,4.96916 564.75,4.30249 559.5,4.5C 552.347,3.46239 545.014,2.79572 537.5,2.5C 526.54,0.99502 515.373,0.328353 504,0.5C 488.979,0.493444 474.146,1.16011 459.5,2.5C 446.523,2.8712 433.856,4.53786 421.5,7.5C 421.167,7.5 420.833,7.5 420.5,7.5C 408.487,8.70252 396.821,11.0358 385.5,14.5C 382.572,14.5651 379.905,15.2318 377.5,16.5C 373.786,16.5902 370.452,17.5902 367.5,19.5C 363.466,19.5165 359.799,20.5165 356.5,22.5C 339.254,27.1354 322.587,33.1354 306.5,40.5C 289.452,47.1913 273.119,55.1913 257.5,64.5C 255.326,64.7497 253.659,65.7497 252.5,67.5C 221.499,84.5015 193.165,105.168 167.5,129.5C 160.556,134.775 154.223,140.775 148.5,147.5C 143.833,151.5 139.5,155.833 135.5,160.5C 130.8,165.199 126.466,170.199 122.5,175.5C 118.692,179.122 115.359,183.122 112.5,187.5C 110.413,188.585 109.08,190.251 108.5,192.5C 106.413,193.585 105.08,195.251 104.5,197.5C 100.103,201.959 96.4365,206.959 93.5,212.5C 88.4282,218.304 84.0949,224.638 80.5,231.5C 66.1995,252.424 54.1995,274.758 44.5,298.5C 41.9884,302.866 39.9884,307.533 38.5,312.5C 36.129,317.265 34.129,322.265 32.5,327.5C 32.5,327.833 32.5,328.167 32.5,328.5C 29.599,334.527 27.2657,340.861 25.5,347.5C 23.8944,350.986 22.8944,354.653 22.5,358.5C 21.0762,360.515 20.4095,362.848 20.5,365.5C 19.0762,367.515 18.4095,369.848 18.5,372.5C 16.5947,377.576 15.2614,382.909 14.5,388.5C 12.2154,395.913 10.5487,403.58 9.5,411.5C 9.5,411.833 9.5,412.167 9.5,412.5C 7.65574,418.911 6.65574,425.578 6.5,432.5C 5.61197,435.054 5.27863,437.721 5.5,440.5C 4.11101,445.269 3.44435,450.269 3.5,455.5C 3.5,459.167 3.5,462.833 3.5,466.5C 2.69088,468.292 2.19088,470.292 2,472.5C 1.33333,487.833 1.33333,503.167 2,518.5C 2.30908,534.759 3.80908,550.759 6.5,566.5C 7.14976,573.514 7.98309,580.514 9,587.5C 9.27941,590.457 10.1127,593.123 11.5,595.5C 11.5,595.833 11.5,596.167 11.5,596.5C 12.8442,607.166 15.1776,617.499 18.5,627.5C 21.4311,640.908 25.4311,653.908 30.5,666.5C 31.0653,670.537 32.3987,674.203 34.5,677.5C 38.5788,689.068 43.2455,700.402 48.5,711.5C 49.9899,715.813 51.9899,719.813 54.5,723.5C 79.7035,774.719 113.037,820.052 154.5,859.5C 158.539,864.54 163.206,868.873 168.5,872.5C 172.413,877.445 177.08,881.445 182.5,884.5C 185.607,888.215 189.273,891.215 193.5,893.5C 202.363,901.186 211.697,908.353 221.5,915C 233.81,923.152 246.477,930.652 259.5,937.5C 262.144,939.723 265.144,941.389 268.5,942.5C 277.731,947.948 287.398,952.615 297.5,956.5C 302.531,959.345 307.864,961.678 313.5,963.5C 321.878,967.346 330.544,970.68 339.5,973.5C 339.833,973.5 340.167,973.5 340.5,973.5C 348.215,976.738 356.215,979.405 364.5,981.5C 365.167,981.5 365.833,981.5 366.5,981.5C 372.468,984.149 378.802,985.816 385.5,986.5C 389.575,988.118 393.908,989.118 398.5,989.5C 400.167,990.167 401.833,990.833 403.5,991.5C 399.154,991.666 394.821,991.499 390.5,991C 259.798,959.443 156.298,887.61 80,775.5C 64.6674,750.497 50.6674,724.83 38,698.5C 27.9575,671.042 18.9575,643.375 11,615.5C 6.42463,587.447 2.5913,559.447 -0.5,531.5C -0.5,513.167 -0.5,494.833 -0.5,476.5C 6.07099,354.983 50.2377,248.983 132,158.5C 209.67,76.433 303.836,25.2663 414.5,5C 428.594,3.56531 442.594,1.73197 456.5,-0.5 Z"/></g>
<g><path style="opacity:0.992" fill="#e5645b" d="M 587.5,8.5 C 593.047,9.01921 598.38,10.0192 603.5,11.5C 598.496,11.1107 593.496,10.6107 588.5,10C 587.944,9.61742 587.611,9.11742 587.5,8.5 Z"/></g>
<g><path style="opacity:1" fill="#e66259" d="M 420.5,7.5 C 409.074,10.939 397.407,13.2723 385.5,14.5C 396.821,11.0358 408.487,8.70252 420.5,7.5 Z"/></g>
<g><path style="opacity:0.969" fill="#e56359" d="M 559.5,4.5 C 564.75,4.30249 569.75,4.96916 574.5,6.5C 569.217,6.90442 564.217,6.23775 559.5,4.5 Z"/></g>
<g><path style="opacity:0.995" fill="#e96156" d="M 459.5,2.5 C 461.5,2.5 463.5,2.5 465.5,2.5C 458.879,3.66692 452.213,4.83359 445.5,6C 437.495,6.50032 429.495,7.00032 421.5,7.5C 433.856,4.53786 446.523,2.8712 459.5,2.5 Z"/></g>
<g><path style="opacity:0.961" fill="#e2564d" d="M 537.5,2.5 C 545.014,2.79572 552.347,3.46239 559.5,4.5C 551.929,4.84329 544.596,4.17662 537.5,2.5 Z"/></g>
<g><path style="opacity:0.992" fill="#e8675d" d="M 537.5,2.5 C 513.5,2.5 489.5,2.5 465.5,2.5C 463.5,2.5 461.5,2.5 459.5,2.5C 474.146,1.16011 488.979,0.493444 504,0.5C 515.373,0.328353 526.54,0.99502 537.5,2.5 Z"/></g>
<g><path style="opacity:1" fill="#e95c51" d="M 606.5,11.5 C 617.83,13.7464 628.83,16.7464 639.5,20.5C 629.36,19.1714 619.36,17.0047 609.5,14C 608.058,13.6232 607.058,12.7899 606.5,11.5 Z"/></g>
<g><path style="opacity:1" fill="#e45e54" d="M 377.5,16.5 C 377.03,17.6935 376.03,18.3601 374.5,18.5C 372.182,18.9971 369.848,19.3305 367.5,19.5C 370.452,17.5902 373.786,16.5902 377.5,16.5 Z"/></g>
<g><path style="opacity:1" fill="#e65b51" d="M 665.5,28.5 C 677.562,32.3711 689.229,37.0378 700.5,42.5C 690.294,38.6914 679.961,35.0247 669.5,31.5C 667.816,30.8503 666.483,29.8503 665.5,28.5 Z"/></g>
<g><path style="opacity:0.992" fill="#e75e54" d="M 356.5,22.5 C 352.741,23.9132 349.075,25.7465 345.5,28C 343.167,28.3333 340.833,28.6667 338.5,29C 327.895,33.145 317.228,36.9783 306.5,40.5C 322.587,33.1354 339.254,27.1354 356.5,22.5 Z"/></g>
<g><path style="opacity:1" fill="#e66056" d="M 710.5,46.5 C 716.146,48.6566 721.48,51.3232 726.5,54.5C 722.462,53.3459 718.462,51.8459 714.5,50C 712.681,49.2597 711.348,48.0931 710.5,46.5 Z"/></g>
<g><path style="opacity:1" fill="#e6635a" d="M 726.5,54.5 C 730.151,55.6589 733.485,57.3256 736.5,59.5C 732.243,59.3252 728.91,57.6585 726.5,54.5 Z"/></g>
<g><path style="opacity:1" fill="#e3665d" d="M 257.5,64.5 C 256.514,66.4077 254.848,67.4077 252.5,67.5C 253.659,65.7497 255.326,64.7497 257.5,64.5 Z"/></g>
<g><path style="opacity:1" fill="#ec584e" d="M 800.5,100.5 C 805.765,103.435 810.432,107.101 814.5,111.5C 809.915,109.249 805.581,106.582 801.5,103.5C 800.873,102.583 800.539,101.583 800.5,100.5 Z"/></g>
<g><path style="opacity:1" fill="#e5554c" d="M 167.5,129.5 C 161.777,136.225 155.444,142.225 148.5,147.5C 154.223,140.775 160.556,134.775 167.5,129.5 Z"/></g>
<g><path style="opacity:1" fill="#e7645a" d="M 867.5,160.5 C 872.2,165.199 876.534,170.199 880.5,175.5C 875.052,171.391 870.719,166.391 867.5,160.5 Z"/></g>
<g><path style="opacity:1" fill="#e65f56" d="M 135.5,160.5 C 132.281,166.391 127.948,171.391 122.5,175.5C 126.466,170.199 130.8,165.199 135.5,160.5 Z"/></g>
<g><path style="opacity:1" fill="#e46057" d="M 122.5,175.5 C 120.118,180.248 116.784,184.248 112.5,187.5C 115.359,183.122 118.692,179.122 122.5,175.5 Z"/></g>
<g><path style="opacity:1" fill="#e5665d" d="M 112.5,187.5 C 111.92,189.749 110.587,191.415 108.5,192.5C 109.08,190.251 110.413,188.585 112.5,187.5 Z"/></g>
<g><path style="opacity:0.984" fill="#e56c62" d="M 108.5,192.5 C 107.92,194.749 106.587,196.415 104.5,197.5C 105.08,195.251 106.413,193.585 108.5,192.5 Z"/></g>
<g><path style="opacity:1" fill="#e05249" d="M 699.5,214.5 C 698.833,214.5 698.167,214.5 697.5,214.5C 576.992,213.185 456.325,213.185 335.5,214.5C 395.83,213.167 456.496,212.5 517.5,212.5C 578.504,212.5 639.17,213.167 699.5,214.5 Z"/></g>
<g><path style="opacity:1" fill="#fecac7" d="M 697.5,214.5 C 576.827,214.198 456.16,214.531 335.5,215.5C 335.5,215.167 335.5,214.833 335.5,214.5C 456.325,213.185 576.992,213.185 697.5,214.5 Z"/></g>
<g><path style="opacity:1" fill="#e8574d" d="M 335.5,214.5 C 335.5,214.833 335.5,215.167 335.5,215.5C 325.56,215.768 315.893,217.434 306.5,220.5C 307.483,219.15 308.816,218.15 310.5,217.5C 318.689,215.268 327.023,214.268 335.5,214.5 Z"/></g>
<g><path style="opacity:1" fill="#fffefe" d="M 697.5,214.5 C 698.167,214.5 698.833,214.5 699.5,214.5C 705.77,220.372 709.436,227.706 710.5,236.5C 710.652,242.699 711.318,248.699 712.5,254.5C 712.867,279.227 711.867,303.894 709.5,328.5C 708.656,332.099 708.323,335.766 708.5,339.5C 706.471,346.97 704.804,354.636 703.5,362.5C 701.205,367.765 698.872,373.098 696.5,378.5C 694.833,379.833 693.167,381.167 691.5,382.5C 671.525,383.252 651.525,383.085 631.5,382C 601.168,379.987 570.835,378.154 540.5,376.5C 535.138,376.528 529.805,376.194 524.5,375.5C 522.167,375.5 519.833,375.5 517.5,375.5C 514.713,374.523 511.713,374.19 508.5,374.5C 508.5,392.5 508.5,410.5 508.5,428.5C 515.5,428.5 522.5,428.5 529.5,428.5C 559.175,428.037 588.841,427.203 618.5,426C 620.382,425.802 622.048,425.302 623.5,424.5C 639.199,423.317 654.865,423.317 670.5,424.5C 677.895,429.607 682.561,436.607 684.5,445.5C 686.797,467.456 687.13,489.456 685.5,511.5C 683.618,524.785 681.285,538.118 678.5,551.5C 676.654,554.54 675.321,557.873 674.5,561.5C 671.801,566.38 668.468,570.88 664.5,575C 662.35,576.411 660.016,577.245 657.5,577.5C 628.832,577.28 600.165,576.947 571.5,576.5C 555.675,575.504 539.675,575.17 523.5,575.5C 518.695,574.513 513.695,574.179 508.5,574.5C 508.5,591.833 508.5,609.167 508.5,626.5C 511.713,626.81 514.713,626.477 517.5,625.5C 545.809,623.446 574.142,621.78 602.5,620.5C 632.321,619.361 662.155,618.361 692,617.5C 697.975,617.303 703.809,617.969 709.5,619.5C 709.833,619.5 710.167,619.5 710.5,619.5C 714.429,626.261 716.929,633.594 718,641.5C 719.333,661.475 719.833,681.475 719.5,701.5C 718.384,712.675 717.384,724.008 716.5,735.5C 715.103,741.639 714.103,747.973 713.5,754.5C 713.5,754.833 713.5,755.167 713.5,755.5C 711.875,759.303 710.542,763.303 709.5,767.5C 707.688,772.278 705.688,776.945 703.5,781.5C 701.157,784.33 698.157,786.163 694.5,787C 572.833,787.667 451.167,787.667 329.5,787C 321.153,786.196 312.82,785.362 304.5,784.5C 296.721,782.778 290.388,778.778 285.5,772.5C 285.108,770.821 284.608,769.154 284,767.5C 283.333,592.833 283.333,418.167 284,243.5C 285.136,241.257 285.97,238.924 286.5,236.5C 291.624,229.267 298.291,223.934 306.5,220.5C 315.893,217.434 325.56,215.768 335.5,215.5C 456.16,214.531 576.827,214.198 697.5,214.5 Z"/></g>
<g><path style="opacity:0.998" fill="#f0594e" d="M 93.5,212.5 C 91.9014,218.364 89.2348,223.697 85.5,228.5C 84.0953,229.994 82.4287,230.994 80.5,231.5C 84.0949,224.638 88.4282,218.304 93.5,212.5 Z"/></g>
<g><path style="opacity:1" fill="#e8685e" d="M 710.5,236.5 C 711.222,236.918 711.722,237.584 712,238.5C 712.499,242.152 712.665,245.818 712.5,249.5C 712.5,251.167 712.5,252.833 712.5,254.5C 711.318,248.699 710.652,242.699 710.5,236.5 Z"/></g>
<g><path style="opacity:1" fill="#e4625a" d="M 286.5,236.5 C 285.97,238.924 285.136,241.257 284,243.5C 283.333,418.167 283.333,592.833 284,767.5C 284.608,769.154 285.108,770.821 285.5,772.5C 284.034,771.653 283.2,770.32 283,768.5C 282.167,592.499 282.333,416.499 283.5,240.5C 284.057,238.668 285.057,237.335 286.5,236.5 Z"/></g>
<g><path style="opacity:1" fill="#ec584d" d="M 712.5,249.5 C 713.268,250.263 713.768,251.263 714,252.5C 714.667,267.5 714.667,282.5 714,297.5C 712.775,307.107 712.108,316.774 712,326.5C 711.583,327.756 710.75,328.423 709.5,328.5C 711.867,303.894 712.867,279.227 712.5,254.5C 712.5,252.833 712.5,251.167 712.5,249.5 Z"/></g>
<g><path style="opacity:0.992" fill="#ee574c" d="M 935.5,253.5 C 939.003,258.502 942.003,263.835 944.5,269.5C 939.474,265.462 936.474,260.128 935.5,253.5 Z"/></g>
<g><path style="opacity:0.992" fill="#e76056" d="M 44.5,298.5 C 44.6602,300.199 44.4935,301.866 44,303.5C 42.6561,306.865 40.8227,309.865 38.5,312.5C 39.9884,307.533 41.9884,302.866 44.5,298.5 Z"/></g>
<g><path style="opacity:0.992" fill="#eb5b50" d="M 957.5,296.5 C 961.287,303.084 964.287,310.084 966.5,317.5C 964.494,315.481 962.828,313.148 961.5,310.5C 960.147,305.807 958.814,301.14 957.5,296.5 Z"/></g>
<g><path style="opacity:1" fill="#e95c52" d="M 38.5,312.5 C 38.6621,314.527 38.4955,316.527 38,318.5C 37.1704,322.153 35.337,325.153 32.5,327.5C 34.129,322.265 36.129,317.265 38.5,312.5 Z"/></g>
<g><path style="opacity:0.992" fill="#e85e53" d="M 966.5,317.5 C 968.346,320.54 969.679,323.873 970.5,327.5C 967.083,325.109 965.75,321.775 966.5,317.5 Z"/></g>
<g><path style="opacity:0.992" fill="#ea5c51" d="M 32.5,328.5 C 31.3391,333.096 30.3391,337.763 29.5,342.5C 28.8658,344.772 27.5324,346.439 25.5,347.5C 27.2657,340.861 29.599,334.527 32.5,328.5 Z"/></g>
<g><path style="opacity:1" fill="#ea5d53" d="M 970.5,328.5 C 973.401,334.527 975.734,340.861 977.5,347.5C 975.381,346.014 973.881,344.014 973,341.5C 972.58,337.048 971.747,332.715 970.5,328.5 Z"/></g>
<g><path style="opacity:1" fill="#eb6156" d="M 708.5,339.5 C 708.021,346.897 707.021,354.23 705.5,361.5C 704.817,361.863 704.15,362.196 703.5,362.5C 704.804,354.636 706.471,346.97 708.5,339.5 Z"/></g>
<g><path style="opacity:0.992" fill="#e46a61" d="M 22.5,358.5 C 22.5905,361.152 21.9238,363.485 20.5,365.5C 20.4095,362.848 21.0762,360.515 22.5,358.5 Z"/></g>
<g><path style="opacity:0.992" fill="#e46b62" d="M 980.5,358.5 C 981.924,360.515 982.59,362.848 982.5,365.5C 981.076,363.485 980.41,361.152 980.5,358.5 Z"/></g>
<g><path style="opacity:1" fill="#e95e53" d="M 703.5,362.5 C 703.771,369.154 701.438,374.487 696.5,378.5C 698.872,373.098 701.205,367.765 703.5,362.5 Z"/></g>
<g><path style="opacity:1" fill="#e06d64" d="M 20.5,365.5 C 20.5905,368.152 19.9238,370.485 18.5,372.5C 18.4095,369.848 19.0762,367.515 20.5,365.5 Z"/></g>
<g><path style="opacity:0.984" fill="#e06f66" d="M 982.5,365.5 C 983.924,367.515 984.59,369.848 984.5,372.5C 983.076,370.485 982.41,368.152 982.5,365.5 Z"/></g>
<g><path style="opacity:1" fill="#e28680" d="M 517.5,375.5 C 514.833,375.5 512.167,375.5 509.5,375.5C 509.5,392.833 509.5,410.167 509.5,427.5C 516.167,427.5 522.833,427.5 529.5,427.5C 529.5,427.833 529.5,428.167 529.5,428.5C 522.5,428.5 515.5,428.5 508.5,428.5C 508.5,410.5 508.5,392.5 508.5,374.5C 511.713,374.19 514.713,374.523 517.5,375.5 Z"/></g>
<g><path style="opacity:1" fill="#e9594f" d="M 517.5,375.5 C 519.833,375.5 522.167,375.5 524.5,375.5C 524.5,375.833 524.5,376.167 524.5,376.5C 519.833,376.5 515.167,376.5 510.5,376.5C 510.5,393.167 510.5,409.833 510.5,426.5C 524.833,426.5 539.167,426.5 553.5,426.5C 545.684,427.492 537.684,427.826 529.5,427.5C 522.833,427.5 516.167,427.5 509.5,427.5C 509.5,410.167 509.5,392.833 509.5,375.5C 512.167,375.5 514.833,375.5 517.5,375.5 Z"/></g>
<g><path style="opacity:1" fill="#e1726a" d="M 524.5,376.5 C 524.5,376.167 524.5,375.833 524.5,375.5C 529.805,376.194 535.138,376.528 540.5,376.5C 540.5,376.833 540.5,377.167 540.5,377.5C 535.13,377.608 529.797,377.275 524.5,376.5 Z"/></g>
<g><path style="opacity:1" fill="#e7675d" d="M 554.5,378.5 C 562.382,378.361 570.049,379.028 577.5,380.5C 571.158,380.666 564.825,380.5 558.5,380C 556.942,379.79 555.609,379.29 554.5,378.5 Z"/></g>
<g><path style="opacity:1" fill="#e6645b" d="M 579.5,380.5 C 590.668,380.921 601.668,381.587 612.5,382.5C 610.5,382.5 608.5,382.5 606.5,382.5C 597.267,382.925 588.267,382.259 579.5,380.5 Z"/></g>
<g><path style="opacity:1" fill="#ffece8" d="M 540.5,377.5 C 540.5,377.167 540.5,376.833 540.5,376.5C 570.835,378.154 601.168,379.987 631.5,382C 651.525,383.085 671.525,383.252 691.5,382.5C 691.082,383.222 690.416,383.722 689.5,384C 663.808,384.692 638.142,384.192 612.5,382.5C 601.668,381.587 590.668,380.921 579.5,380.5C 578.833,380.5 578.167,380.5 577.5,380.5C 570.049,379.028 562.382,378.361 554.5,378.5C 549.859,377.873 545.193,377.54 540.5,377.5 Z"/></g>
<g><path style="opacity:1" fill="#e55d54" d="M 984.5,372.5 C 986.405,377.576 987.739,382.909 988.5,388.5C 984.95,383.889 983.617,378.556 984.5,372.5 Z"/></g>
<g><path style="opacity:1" fill="#e55d53" d="M 18.5,372.5 C 18.4189,377.617 17.5856,382.617 16,387.5C 15.6174,388.056 15.1174,388.389 14.5,388.5C 15.2614,382.909 16.5947,377.576 18.5,372.5 Z"/></g>
<g><path style="opacity:1" fill="#e96056" d="M 696.5,378.5 C 695.272,381.075 693.605,383.408 691.5,385.5C 675.177,386.666 658.844,386.833 642.5,386C 632.265,384.714 621.932,384.048 611.5,384C 609.618,383.802 607.952,383.302 606.5,382.5C 608.5,382.5 610.5,382.5 612.5,382.5C 638.142,384.192 663.808,384.692 689.5,384C 690.416,383.722 691.082,383.222 691.5,382.5C 693.167,381.167 694.833,379.833 696.5,378.5 Z"/></g>
<g><path style="opacity:1" fill="#e96b62" d="M 988.5,388.5 C 989.66,392.681 990.66,397.015 991.5,401.5C 988.993,397.65 987.993,393.316 988.5,388.5 Z"/></g>
<g><path style="opacity:1" fill="#eb645a" d="M 14.5,388.5 C 14.5249,396.017 13.3583,403.351 11,410.5C 10.6174,411.056 10.1174,411.389 9.5,411.5C 10.5487,403.58 12.2154,395.913 14.5,388.5 Z"/></g>
<g><path style="opacity:0.992" fill="#e76157" d="M 991.5,402.5 C 994.557,417.258 996.89,432.258 998.5,447.5C 996.162,438.975 994.329,430.308 993,421.5C 992.349,415.173 991.849,408.84 991.5,402.5 Z"/></g>
<g><path style="opacity:1" fill="#d9584f" d="M 670.5,424.5 C 654.865,423.317 639.199,423.317 623.5,424.5C 617.167,424.5 610.833,424.5 604.5,424.5C 625.977,422.634 647.644,422.134 669.5,423C 670.056,423.383 670.389,423.883 670.5,424.5 Z"/></g>
<g><path style="opacity:1" fill="#e6685f" d="M 604.5,424.5 C 588.02,425.926 571.354,426.592 554.5,426.5C 556.969,425.683 559.635,425.183 562.5,425C 576.496,424.5 590.496,424.333 604.5,424.5 Z"/></g>
<g><path style="opacity:1" fill="#ffedea" d="M 604.5,424.5 C 610.833,424.5 617.167,424.5 623.5,424.5C 622.048,425.302 620.382,425.802 618.5,426C 588.841,427.203 559.175,428.037 529.5,428.5C 529.5,428.167 529.5,427.833 529.5,427.5C 537.684,427.826 545.684,427.492 553.5,426.5C 553.833,426.5 554.167,426.5 554.5,426.5C 571.354,426.592 588.02,425.926 604.5,424.5 Z"/></g>
<g><path style="opacity:0.992" fill="#e6665c" d="M 9.5,412.5 C 9.15098,418.84 8.65098,425.173 8,431.5C 7.61742,432.056 7.11742,432.389 6.5,432.5C 6.65574,425.578 7.65574,418.911 9.5,412.5 Z"/></g>
<g><path style="opacity:0.851" fill="#ef8a82" d="M 5.5,440.5 C 5.55565,445.731 4.88899,450.731 3.5,455.5C 3.44435,450.269 4.11101,445.269 5.5,440.5 Z"/></g>
<g><path style="opacity:1" fill="#e7534a" d="M 684.5,445.5 C 685.905,448.926 686.905,452.592 687.5,456.5C 688.943,477.385 688.276,498.051 685.5,518.5C 685.5,516.167 685.5,513.833 685.5,511.5C 687.13,489.456 686.797,467.456 684.5,445.5 Z"/></g>
<g><path style="opacity:0.991" fill="#ec6359" d="M 3.5,466.5 C 2.89232,499.891 3.89232,533.225 6.5,566.5C 3.80908,550.759 2.30908,534.759 2,518.5C 1.33333,503.167 1.33333,487.833 2,472.5C 2.19088,470.292 2.69088,468.292 3.5,466.5 Z"/></g>
<g><path style="opacity:1" fill="#e86f65" d="M 685.5,511.5 C 685.5,513.833 685.5,516.167 685.5,518.5C 684.168,527.492 682.834,536.492 681.5,545.5C 681.036,547.975 680.036,549.975 678.5,551.5C 681.285,538.118 683.618,524.785 685.5,511.5 Z"/></g>
<g><path style="opacity:1" fill="#e75d53" d="M 678.5,551.5 C 679.25,555.775 677.917,559.109 674.5,561.5C 675.321,557.873 676.654,554.54 678.5,551.5 Z"/></g>
<g><path style="opacity:0.992" fill="#e65c53" d="M 6.5,566.5 C 7.93039,570.69 9.09706,575.024 10,579.5C 10.3905,584.854 10.8905,590.188 11.5,595.5C 10.1127,593.123 9.27941,590.457 9,587.5C 7.98309,580.514 7.14976,573.514 6.5,566.5 Z"/></g>
<g><path style="opacity:1" fill="#e25950" d="M 996.5,566.5 C 995.895,575.086 994.561,583.419 992.5,591.5C 992.335,588.15 992.502,584.817 993,581.5C 993.926,576.319 995.093,571.319 996.5,566.5 Z"/></g>
<g><path style="opacity:1" fill="#e48984" d="M 523.5,575.5 C 518.833,575.5 514.167,575.5 509.5,575.5C 509.5,592.167 509.5,608.833 509.5,625.5C 512.167,625.5 514.833,625.5 517.5,625.5C 514.713,626.477 511.713,626.81 508.5,626.5C 508.5,609.167 508.5,591.833 508.5,574.5C 513.695,574.179 518.695,574.513 523.5,575.5 Z"/></g>
<g><path style="opacity:1" fill="#e8675d" d="M 559.5,576.5 C 563.5,576.5 567.5,576.5 571.5,576.5C 600.165,576.947 628.832,577.28 657.5,577.5C 645.505,578.167 633.338,578.5 621,578.5C 600.315,578.606 579.815,577.939 559.5,576.5 Z"/></g>
<g><path style="opacity:1" fill="#e75c52" d="M 992.5,591.5 C 990.961,603.875 988.294,615.875 984.5,627.5C 986.355,615.796 988.521,604.129 991,592.5C 991.383,591.944 991.883,591.611 992.5,591.5 Z"/></g>
<g><path style="opacity:1" fill="#ea594e" d="M 11.5,596.5 C 14.9638,606.477 17.2972,616.81 18.5,627.5C 15.1776,617.499 12.8442,607.166 11.5,596.5 Z"/></g>
<g><path style="opacity:1" fill="#ffebe8" d="M 709.5,619.5 C 703.809,617.969 697.975,617.303 692,617.5C 662.155,618.361 632.321,619.361 602.5,620.5C 636.945,617.268 671.612,616.102 706.5,617C 707.942,617.377 708.942,618.21 709.5,619.5 Z"/></g>
<g><path style="opacity:1" fill="#e96258" d="M 523.5,575.5 C 539.675,575.17 555.675,575.504 571.5,576.5C 567.5,576.5 563.5,576.5 559.5,576.5C 543.167,576.5 526.833,576.5 510.5,576.5C 510.5,592.5 510.5,608.5 510.5,624.5C 559.508,620.989 608.508,617.822 657.5,615C 674.167,614.333 690.833,614.333 707.5,615C 709.439,615.908 710.439,617.408 710.5,619.5C 710.167,619.5 709.833,619.5 709.5,619.5C 708.942,618.21 707.942,617.377 706.5,617C 671.612,616.102 636.945,617.268 602.5,620.5C 574.142,621.78 545.809,623.446 517.5,625.5C 514.833,625.5 512.167,625.5 509.5,625.5C 509.5,608.833 509.5,592.167 509.5,575.5C 514.167,575.5 518.833,575.5 523.5,575.5 Z"/></g>
<g><path style="opacity:1" fill="#e35c52" d="M 30.5,666.5 C 31.1174,666.611 31.6174,666.944 32,667.5C 33.1434,670.777 33.9767,674.11 34.5,677.5C 32.3987,674.203 31.0653,670.537 30.5,666.5 Z"/></g>
<g><path style="opacity:1" fill="#e3584f" d="M 710.5,619.5 C 711.583,619.539 712.583,619.873 713.5,620.5C 715.774,627.1 717.774,633.766 719.5,640.5C 720.828,662.663 720.828,684.663 719.5,706.5C 719.5,704.833 719.5,703.167 719.5,701.5C 719.833,681.475 719.333,661.475 718,641.5C 716.929,633.594 714.429,626.261 710.5,619.5 Z"/></g>
<g><path style="opacity:0.992" fill="#e66057" d="M 48.5,711.5 C 51.8118,714.722 53.8118,718.722 54.5,723.5C 51.9899,719.813 49.9899,715.813 48.5,711.5 Z"/></g>
<g><path style="opacity:0.992" fill="#ef564c" d="M 954.5,710.5 C 953.284,715.262 951.284,719.595 948.5,723.5C 948.128,717.918 950.128,713.584 954.5,710.5 Z"/></g>
<g><path style="opacity:1" fill="#e56b62" d="M 719.5,701.5 C 719.5,703.167 719.5,704.833 719.5,706.5C 719.421,715.853 718.921,725.187 718,734.5C 717.617,735.056 717.117,735.389 716.5,735.5C 717.384,724.008 718.384,712.675 719.5,701.5 Z"/></g>
<g><path style="opacity:1" fill="#eb6257" d="M 716.5,735.5 C 716.666,740.844 716.499,746.177 716,751.5C 715.148,752.571 714.315,753.571 713.5,754.5C 714.103,747.973 715.103,741.639 716.5,735.5 Z"/></g>
<g><path style="opacity:0.995" fill="#ec594e" d="M 928.5,759.5 C 926.582,764.343 923.916,768.677 920.5,772.5C 920.5,770.5 920.5,768.5 920.5,766.5C 921.552,766.649 922.552,766.483 923.5,766C 924.103,764.175 924.77,762.341 925.5,760.5C 926.417,759.873 927.417,759.539 928.5,759.5 Z"/></g>
<g><path style="opacity:1" fill="#e46258" d="M 713.5,755.5 C 713.196,758.522 712.696,761.522 712,764.5C 711.623,765.942 710.79,766.942 709.5,767.5C 710.542,763.303 711.875,759.303 713.5,755.5 Z"/></g>
<g><path style="opacity:1" fill="#e1534a" d="M 703.5,781.5 C 702.962,783.117 702.629,784.784 702.5,786.5C 700.073,786.523 697.74,787.023 695.5,788C 568.832,788.833 442.165,788.667 315.5,787.5C 311.411,787.112 307.744,786.112 304.5,784.5C 312.82,785.362 321.153,786.196 329.5,787C 451.167,787.667 572.833,787.667 694.5,787C 698.157,786.163 701.157,784.33 703.5,781.5 Z"/></g>
<g><path style="opacity:0.992" fill="#e95a4f" d="M 154.5,859.5 C 160.121,862.787 164.788,867.121 168.5,872.5C 163.206,868.873 158.539,864.54 154.5,859.5 Z"/></g>
<g><path style="opacity:1" fill="#e56359" d="M 182.5,884.5 C 186.727,886.785 190.393,889.785 193.5,893.5C 189.273,891.215 185.607,888.215 182.5,884.5 Z"/></g>
<g><path style="opacity:0.051" fill="#fff4f2" d="M 999.5,546.5 C 999.5,555.5 999.5,564.5 999.5,573.5C 971.667,736.679 885.334,859.846 740.5,943C 707.276,960.319 672.609,974.319 636.5,985C 611.664,990.759 586.664,995.092 561.5,998C 558.497,998.749 555.831,999.915 553.5,1001.5C 517.833,1001.5 482.167,1001.5 446.5,1001.5C 444.169,999.915 441.503,998.749 438.5,998C 429.758,997.619 421.091,996.619 412.5,995C 409.182,994.246 406.182,993.08 403.5,991.5C 408.847,992.073 414.18,992.74 419.5,993.5C 420.167,993.5 420.833,993.5 421.5,993.5C 428.927,995.291 436.593,996.291 444.5,996.5C 453.909,998.577 463.575,999.744 473.5,1000C 511.295,1002 548.628,999.497 585.5,992.5C 593.964,991.91 602.297,990.577 610.5,988.5C 613.067,988.279 615.401,987.612 617.5,986.5C 619.698,986.125 621.698,985.458 623.5,984.5C 629.179,984.155 634.512,982.822 639.5,980.5C 646.274,978.807 652.941,976.807 659.5,974.5C 663.532,973.918 667.199,972.584 670.5,970.5C 674.537,969.935 678.203,968.601 681.5,966.5C 685.127,965.679 688.46,964.346 691.5,962.5C 694.912,961.925 697.912,960.592 700.5,958.5C 703.912,957.958 706.912,956.625 709.5,954.5C 718.268,951.282 726.601,947.282 734.5,942.5C 748.659,935.257 762.326,927.257 775.5,918.5C 777.795,917.525 779.795,916.192 781.5,914.5C 837.298,876.369 883.632,829.036 920.5,772.5C 923.916,768.677 926.582,764.343 928.5,759.5C 936.192,748.121 942.859,736.121 948.5,723.5C 951.284,719.595 953.284,715.262 954.5,710.5C 967.383,684.025 977.383,656.359 984.5,627.5C 988.294,615.875 990.961,603.875 992.5,591.5C 994.561,583.419 995.895,575.086 996.5,566.5C 997.264,559.706 998.264,553.04 999.5,546.5 Z"/></g>
<g><path style="opacity:0.886" fill="#e57168" d="M 781.5,914.5 C 779.795,916.192 777.795,917.525 775.5,918.5C 776.663,916.018 778.663,914.684 781.5,914.5 Z"/></g>
<g><path style="opacity:1" fill="#e85b51" d="M 259.5,937.5 C 263.547,937.355 266.547,939.022 268.5,942.5C 265.144,941.389 262.144,939.723 259.5,937.5 Z"/></g>
<g><path style="opacity:1" fill="#e85c52" d="M 734.5,942.5 C 726.601,947.282 718.268,951.282 709.5,954.5C 715.721,950.382 722.388,946.715 729.5,943.5C 731.045,942.548 732.712,942.215 734.5,942.5 Z"/></g>
<g><path style="opacity:0.992" fill="#ec5a4f" d="M 297.5,956.5 C 303.733,956.906 309.066,959.24 313.5,963.5C 307.864,961.678 302.531,959.345 297.5,956.5 Z"/></g>
<g><path style="opacity:1" fill="#e75c53" d="M 700.5,958.5 C 697.912,960.592 694.912,961.925 691.5,962.5C 693.777,959.867 696.777,958.534 700.5,958.5 Z"/></g>
<g><path style="opacity:1" fill="#e9645a" d="M 313.5,963.5 C 318.327,963.996 322.993,965.163 327.5,967C 331.722,968.941 335.722,971.108 339.5,973.5C 330.544,970.68 321.878,967.346 313.5,963.5 Z"/></g>
<g><path style="opacity:0.937" fill="#e65f56" d="M 681.5,966.5 C 678.203,968.601 674.537,969.935 670.5,970.5C 673.563,967.814 677.229,966.481 681.5,966.5 Z"/></g>
<g><path style="opacity:0.929" fill="#e36259" d="M 670.5,970.5 C 667.199,972.584 663.532,973.918 659.5,974.5C 661.242,973.043 663.242,971.876 665.5,971C 667.134,970.506 668.801,970.34 670.5,970.5 Z"/></g>
<g><path style="opacity:0.992" fill="#e86157" d="M 340.5,973.5 C 346.326,974.231 351.992,975.398 357.5,977C 359.993,978.419 362.326,979.919 364.5,981.5C 356.215,979.405 348.215,976.738 340.5,973.5 Z"/></g>
<g><path style="opacity:1" fill="#e85a50" d="M 639.5,980.5 C 634.512,982.822 629.179,984.155 623.5,984.5C 628.31,981.964 633.644,980.63 639.5,980.5 Z"/></g>
<g><path style="opacity:0.992" fill="#e4685e" d="M 366.5,981.5 C 373.36,981.807 379.694,983.474 385.5,986.5C 378.802,985.816 372.468,984.149 366.5,981.5 Z"/></g>
<g><path style="opacity:0.992" fill="#e7635a" d="M 385.5,986.5 C 390.393,985.839 394.726,986.839 398.5,989.5C 393.908,989.118 389.575,988.118 385.5,986.5 Z"/></g>
<g><path style="opacity:1" fill="#eb766c" d="M 617.5,986.5 C 615.401,987.612 613.067,988.279 610.5,988.5C 610.611,987.883 610.944,987.383 611.5,987C 613.473,986.505 615.473,986.338 617.5,986.5 Z"/></g>
<g><path style="opacity:1" fill="#e95e54" d="M 398.5,989.5 C 402.849,989.585 407.182,989.918 411.5,990.5C 414.608,990.637 417.275,991.637 419.5,993.5C 414.18,992.74 408.847,992.073 403.5,991.5C 401.833,990.833 400.167,990.167 398.5,989.5 Z"/></g>
<g><path style="opacity:1" fill="#e5574e" d="M 421.5,993.5 C 428.5,993.923 435.5,994.423 442.5,995C 443.416,995.278 444.082,995.778 444.5,996.5C 436.593,996.291 428.927,995.291 421.5,993.5 Z"/></g>
<g><path style="opacity:0.986" fill="#ea6258" d="M 585.5,992.5 C 548.628,999.497 511.295,1002 473.5,1000C 463.575,999.744 453.909,998.577 444.5,996.5C 474.457,998.424 504.457,998.924 534.5,998C 551.22,995.467 568.22,993.633 585.5,992.5 Z"/></g>
</svg>
